<svg height="512pt" viewBox="0 0 512.001 512" width="512pt" xmlns="http://www.w3.org/2000/svg"><path style="fill:#b3b3b3;" d="m478.402344 366.0625c.144531 2.445312.21875 4.9375.21875 7.40625 0 67.585938-54.980469 122.570312-122.566406 122.570312h-27.515626v-188.105468h-145.078124v188.105468h-27.515626c-31.984374 0-62.25-12.246093-85.226562-34.484374l-10.441406 10.785156c25.792968 24.960937 59.765625 38.707031 95.667968 38.707031h200.109376c75.859374 0 137.574218-61.71875 137.574218-137.578125 0-2.769531-.082031-5.558594-.246094-8.296875zm-229.90625 129.976562h-50.027344v-173.097656h50.027344zm65.035156 0h-50.027344v-173.097656h50.027344zm0 0"/><path style="fill:#b3b3b3;" d="m33.378906 373.46875c0-67.582031 54.980469-122.566406 122.566406-122.566406h66.464844v-15.007813h-38.949218v-2.5c0-6.898437 5.609374-12.507812 12.503906-12.507812h120.066406c6.898438 0 12.507812 5.609375 12.507812 12.507812v2.5h-91.121093v15.007813h118.636719c59.601562 0 110.367187 42.53125 120.699218 101.125l14.78125-2.605469c-11.601562-65.78125-68.578125-113.527344-135.480468-113.527344h-12.507813v-2.5c0-15.171875-12.34375-27.515625-27.515625-27.515625h-120.066406c-15.167969 0-27.511719 12.34375-27.511719 27.515625v2.5h-12.507813c-75.859374 0-137.578124 61.71875-137.578124 137.574219.003906 31.742188 11.070312 62.714844 31.167968 87.210938l11.601563-9.519532c-17.898438-21.820312-27.757813-49.410156-27.757813-77.691406zm0 0"/><path style="fill:#b3b3b3;" d="m348.550781 337.65625v143.375h7.503907c59.308593 0 107.558593-48.253906 107.558593-107.5625 0-59.304688-48.25-107.558594-107.558593-107.558594h-7.503907v56.738282h15.007813v-41.425782c47.535156 3.832032 85.046875 43.742188 85.046875 92.246094 0 48.507812-37.511719 88.417969-85.046875 92.25v-128.0625zm0 0"/><path style="fill:#b3b3b3;" d="m163.449219 409.28125v-143.371094h-7.503907c-59.308593 0-107.558593 48.253906-107.558593 107.558594 0 59.308594 48.25 107.5625 107.558593 107.5625h7.503907v-56.738281h-15.007813v41.425781c-47.539062-3.832031-85.046875-43.742188-85.046875-92.25 0-48.503906 37.507813-88.414062 85.046875-92.246094v128.058594zm0 0"/><path style="fill:#b3b3b3;" d="m112.199219 123.5625c3.117187 12.1875 14.074219 20.699219 26.640625 20.699219 2.296875 0 4.597656-.289063 6.835937-.863281l84.8125-21.703126v67.675782h15.007813v-71.515625l21.011718-5.378907v76.894532h15.007813v-80.734375l52.765625-13.503907-3.722656-14.539062-188.601563 48.265625c-1.023437.261719-2.074219.394531-3.117187.394531-5.707032 0-10.683594-3.867187-12.101563-9.410156l-1.613281-6.300781 256.867188-65.734375 1.613281 6.304687c.261719 1.019531.394531 2.066407.394531 3.109375 0 5.710938-3.867188 10.6875-9.410156 12.105469l-29.492188 7.546875 3.722656 14.539062 29.492188-7.546874c12.1875-3.117188 20.699219-14.074219 20.699219-26.644532 0-2.296875-.292969-4.597656-.863281-6.832031l-1.613282-6.300781 115.464844-29.550782-3.722656-14.539062-154.445313 39.523438c.464844-2.003907.722657-4.09375.722657-6.238282 0-15.171875-12.34375-27.515625-27.515626-27.515625-15.171874 0-27.515624 12.34375-27.515624 27.515625 0 7.039063 2.660156 13.46875 7.027343 18.339844l-24.863281 6.359375c.539062-2.140625.828125-4.382813.828125-6.691406 0-15.171875-12.34375-27.515625-27.515625-27.515625s-27.515625 12.34375-27.515625 27.515625c0 7.207031 2.789063 13.773437 7.339844 18.683593l-25.296875 6.476563c.613281-2.28125.945312-4.679687.945312-7.152344 0-15.167969-12.34375-27.511719-27.511718-27.511719-15.171876 0-27.515626 12.34375-27.515626 27.511719 0 7.378907 2.921876 14.082031 7.667969 19.027344l-163.113281 41.742187 3.722656 14.539063 106.863282-27.347656zm214.839843-102.785156c6.894532 0 12.507813 5.609375 12.507813 12.507812 0 6.894532-5.613281 12.503906-12.507813 12.503906-6.898437 0-12.507812-5.609374-12.507812-12.503906 0-6.898437 5.613281-12.507812 12.507812-12.507812zm-72.039062 18.007812c6.894531 0 12.503906 5.613282 12.503906 12.507813 0 6.898437-5.609375 12.507812-12.503906 12.507812-6.898438 0-12.507812-5.609375-12.507812-12.507812 0-6.894531 5.609374-12.507813 12.507812-12.507813zm-72.039062 18.011719c6.894531 0 12.503906 5.609375 12.503906 12.507813 0 6.894531-5.609375 12.503906-12.503906 12.503906-6.898438 0-12.507813-5.609375-12.507813-12.503906 0-6.898438 5.609375-12.507813 12.507813-12.507813zm0 0"/><path style="fill:#b3b3b3;" d="m433.597656 373.46875h-15.007812c0-4.480469-.480469-8.953125-1.425782-13.296875l14.667969-3.1875c1.171875 5.386719 1.765625 10.933594 1.765625 16.484375zm-20.660156-25.96875c-6.128906-13.363281-16.816406-24.203125-30.09375-30.53125l6.453125-13.546875c16.449219 7.832031 29.691406 21.265625 37.285156 37.824219zm0 0"/><path style="fill:#b3b3b3;" d="m293.519531 292.925781h-15.007812v-15.007812h15.007812zm-30.015625 0h-15.007812v-15.007812h15.007812zm-30.015625 0h-15.007812v-15.007812h15.007812zm0 0"/><path style="fill:#b3b3b3;" d="m278.511719 407.988281h15.007812v15.007813h-15.007812zm0 0"/><path style="fill:#b3b3b3;" d="m218.480469 407.988281h15.007812v15.007813h-15.007812zm0 0"/></svg>