<!-- Generator: Adobe Illustrator 23.0.2, SVG Export Plug-In  -->
<svg version="1.1" xmlns="http://www.w3.org/2000/svg" xmlns:xlink="http://www.w3.org/1999/xlink" x="0px" y="0px" width="2018px"
	 height="478.5px" viewBox="0 0 2018 478.5" style="enable-background:new 0 0 2018 478.5;" xml:space="preserve">
<style type="text/css">
	.st0{fill:#00369E;}
	.st1{fill:#3053A5;}
</style>
<defs>
</defs>
<g>
	<g>
		<g>
			<path class="st0" d="M219.9,398.6l1.1,4.3H3l134.2-251.4H0V97.5h231.3L97.6,349h115.7C213.5,365.7,215.7,382.3,219.9,398.6z"/>
		</g>
	</g>
	<g>
		<g>
			<path class="st0" d="M599.7,403.5l134.2-251.4H596.7V98.2h186.7c10.7,8.1,20.9,17,30.6,26.5L694.4,349.6h113.9
				c0.1,4.8,0.4,9.6,1,14.5c1.7,13.9,5.5,27.2,11.1,39.4H599.7z"/>
		</g>
	</g>
	<g>
		<g>
			<path class="st0" d="M1398,328.3l28.3,46.6c-13.4,11-28.5,19.6-44.8,25.7c-17.6,6.5-36,9.8-54.8,9.8c-14.4,0-28.5-1.9-41.9-5.6
				c-13.4-3.7-26.1-9.1-37.7-16c-11.7-6.9-22.5-15.2-32.1-24.8c-9.6-9.6-18-20.4-24.8-32.1c-6.9-11.7-12.2-24.4-16-37.7
				c-3.7-13.3-5.6-27.4-5.6-41.9s1.9-28.5,5.6-42c3.7-13.4,9.1-26.2,16-37.8c6.9-11.7,15.2-22.5,24.8-32.1
				c9.6-9.6,20.4-18,32.1-24.8s24.4-12.2,37.7-16c13.3-3.7,27.4-5.6,41.9-5.6c18.8,0,37.2,3.3,54.8,9.7c16.3,6,31.4,14.6,44.8,25.8
				l-28.3,46.6c-8.7-8.3-18.8-15-30.1-19.8c-13.1-5.6-26.9-8.4-41.2-8.4c-14.4,0-28.2,2.8-40.8,8.3c-12.6,5.5-23.8,13-33.2,22.3
				c-9.4,9.4-17,20.5-22.4,33.2c-5.5,12.7-8.3,26.4-8.3,40.7s2.8,27.9,8.3,40.5c5.5,12.5,13,23.7,22.4,33.1
				c9.4,9.4,20.6,17,33.2,22.4c12.6,5.5,26.4,8.3,40.8,8.3c14.3,0,28.1-2.8,41.2-8.4C1379.2,343.3,1389.3,336.6,1398,328.3z"/>
		</g>
		<g>
			<path class="st0" d="M1702.5,172.3c-6.3-14.7-15.1-27.7-26-38.6c-10.9-10.9-23.9-19.7-38.6-26c-14.6-6.3-30.5-9.5-47.2-9.5
				c-16.7,0-32.6,3.2-47.2,9.5c-14.7,6.3-27.6,15.1-38.5,26c-10.9,10.9-19.6,23.9-25.9,38.6c-6.3,14.6-9.5,30.5-9.5,47.2v184h53.7
				v-62.9h134.8v62.9h53.9v-184C1712,202.8,1708.8,186.9,1702.5,172.3z M1658.1,286.9h-134.8v-67.4c0-9.2,1.8-18,5.3-26.2
				c3.5-8.2,8.4-15.4,14.4-21.5c6.1-6.1,13.3-10.9,21.5-14.4c8.2-3.5,17-5.3,26.2-5.3c9.2,0,18,1.8,26.2,5.3
				c8.2,3.5,15.4,8.4,21.5,14.4c6.1,6.1,10.9,13.3,14.4,21.5c3.5,8.2,5.3,17,5.3,26.2V286.9z"/>
		</g>
		<g>
			<path class="st0" d="M2013.7,187.4c-2.9-10.3-7-20-12.3-29c-5.3-9-11.7-17.3-19-24.6c-7.4-7.4-15.6-13.8-24.5-19
				c-8.9-5.3-18.6-9.4-28.9-12.3c-10.2-2.9-21-4.3-32.1-4.3h-121.3v305.3h53.9v-62.9l77.8-0.5l27.4,63.4h57.1l-33.7-79.5l3.2-2
				c8.7-5.5,16.7-12,23.7-19.4c7-7.4,13-15.7,17.9-24.5c4.8-8.8,8.6-18.3,11.2-28.2c2.6-9.8,3.9-20,3.9-30.4
				C2018,208.4,2016.5,197.6,2013.7,187.4z M1958.8,245.7c-3.5,8.2-8.4,15.4-14.4,21.5c-6.1,6.1-13.3,10.9-21.3,14.4
				c-8.1,3.5-16.9,5.3-26.1,5.3h-67.4V152.1h67.4c9.2,0,18,1.8,26.1,5.3c8.1,3.5,15.3,8.4,21.3,14.4c6.1,6.1,10.9,13.3,14.4,21.5
				c3.5,8.2,5.3,17,5.3,26.2C1964.1,228.7,1962.3,237.5,1958.8,245.7z"/>
		</g>
	</g>
	<g>
		<g>
			<path class="st1" d="M1139.6,397.1H1067c-18,43.8-58.3,74.5-105.2,80.4c-5.5,0.7-10.9,1-16.3,1c-65.3,0-121.9-48.7-130.2-115.2
				c-8.9-72,42.1-137.6,114.1-146.5c5.5-0.7,11-1,16.4-1c65.3,0,121.9,48.7,130.1,115.2l-32.8,4.1c-6.2-49.7-48.5-86.1-97.4-86.1
				c-4.1,0-8.1,0.3-12.3,0.8c-53.8,6.7-92,55.8-85.4,109.6c6.2,49.8,48.6,86.2,97.5,86.2c4,0,8.1-0.2,12.2-0.8
				c42.9-5.4,77.2-38.1,84.7-80.6h69.7c9.3-91.9-57.7-174-149.6-183.4c-5.6-0.6-11.3-0.9-16.9-0.9c-5.9,0-11.9,0.3-17.9,1
				c-3.6,0.4-7.1,0.6-10.6,0.6c-29.8,0-58.2-13.4-77.2-36.8C780.5,71.2,693.8,33.1,606.3,33.1c-66.3,0-133,21.8-188.5,66.8
				c-34.3,27.7-61.9,62.5-81.2,102.1c-57.3,32.8-89.9,96.4-83.3,162.1H323c8.3,47.7,49.8,81.3,96.7,81.3c5.6,0,11.3-0.5,17-1.5
				c53.4-9.4,89.3-60.3,79.9-113.7c-8.3-47.8-49.8-81.4-96.7-81.4c-5.6,0-11.3,0.5-17,1.5c-42.6,7.5-75.3,41.8-80.6,84.7l-32.9-4.1
				c5.8-47,36.6-87.2,80.3-105.3c16.4-6.7,33.3-9.9,50-9.9c51.7,0,100.6,30.6,121.5,81.4c27.6,67.1-4.4,143.8-71.5,171.5
				c-16.3,6.7-33.3,9.9-49.9,9.9c-51.6,0-100.6-30.7-121.5-81.4h-72.6c-21.6-83.7,13-171.8,85.6-218.5
				c21.1-40.3,50.2-75.8,85.6-104.5C458.6,24.3,532.7,0,606.3,0c97.1,0,193.5,42.3,259.3,123.7c12.7,15.6,31.6,24.6,51.5,24.6
				c2.4,0,4.7-0.1,7.1-0.4c7.1-0.8,14.3-1.2,21.4-1.2c16.8,0,33.6,2.1,50,6.4C1102.7,180.7,1167.2,290,1139.6,397.1z"/>
		</g>
	</g>
</g>
</svg>
