<svg 
 xmlns="http://www.w3.org/2000/svg"
 xmlns:xlink="http://www.w3.org/1999/xlink"
 width="311px" height="311px">
<path fill-rule="evenodd"  fill="rgb(0, 26, 145)"
 d="M299.259,259.688 C312.049,272.477 315.094,290.361 303.751,301.705 L301.798,303.657 C290.456,315.000 272.571,311.956 259.782,299.166 C259.782,299.166 211.688,251.073 195.657,235.041 C192.706,232.091 189.209,234.175 189.209,234.175 C140.825,263.201 78.863,256.892 37.201,215.230 C-11.906,166.122 -11.905,86.217 37.201,37.108 C86.310,-12.000 166.214,-12.000 215.323,37.108 C256.984,78.770 263.293,140.732 234.268,189.116 C234.268,189.116 232.183,192.614 234.999,195.429 C251.063,211.493 299.259,259.688 299.259,259.688 ZM192.068,60.364 C155.782,24.079 96.741,24.078 60.456,60.364 C24.170,96.649 24.170,155.691 60.456,191.977 C96.742,228.261 155.783,228.261 192.069,191.977 C228.355,155.691 228.354,96.650 192.068,60.364 ZM184.032,118.695 C178.966,118.695 174.152,115.716 172.054,110.757 C160.058,82.405 127.229,69.098 98.875,81.096 C92.261,83.893 84.636,80.802 81.837,74.190 C79.039,67.579 82.132,59.951 88.742,57.153 C130.298,39.568 178.413,59.070 195.998,100.627 C198.796,107.238 195.703,114.866 189.092,117.664 C187.437,118.363 185.720,118.695 184.032,118.695 Z"/>
<path fill-rule="evenodd"  fill="rgb(47, 82, 164)"
 d="M299.259,259.688 C312.049,272.477 315.094,290.361 303.751,301.705 L301.798,303.657 C290.456,315.000 272.571,311.956 259.782,299.166 C259.782,299.166 211.688,251.073 195.657,235.041 C192.706,232.091 189.209,234.175 189.209,234.175 C140.825,263.201 78.863,256.892 37.201,215.230 C-11.906,166.122 -11.905,86.217 37.201,37.108 C86.310,-12.000 166.214,-12.000 215.323,37.108 C256.984,78.770 263.293,140.732 234.268,189.116 C234.268,189.116 232.183,192.614 234.999,195.429 C251.063,211.493 299.259,259.688 299.259,259.688 ZM192.068,60.364 C155.782,24.079 96.741,24.078 60.456,60.364 C24.170,96.649 24.170,155.691 60.456,191.977 C96.742,228.261 155.783,228.261 192.069,191.977 C228.355,155.691 228.354,96.650 192.068,60.364 ZM184.032,118.695 C178.966,118.695 174.152,115.716 172.054,110.757 C160.058,82.405 127.229,69.098 98.875,81.096 C92.261,83.893 84.636,80.802 81.837,74.190 C79.039,67.579 82.132,59.951 88.742,57.153 C130.298,39.568 178.413,59.070 195.998,100.627 C198.796,107.238 195.703,114.866 189.092,117.664 C187.437,118.363 185.720,118.695 184.032,118.695 Z"/>
</svg>